# xmcd
#
# Track frame offsets:
#	150
#	9345
#	32355
#	50577
#	58265
#	73052
#	83605
#	110005
#	114922
#	130772
#	187300
#	192125
#	201247
#	211680
#	226440
#	243760
#
# Disc length: 3558 seconds
#
# Revision: 0
# Processed by: cddbd v1.4PL0 Copyright (c) Steve Scherf et al.
# Submitted via: EasyCDDAExtractor 4.5.0.1
#
DISCID=d80de410
DTITLE=James Brown - Soul Jubilee
DYEAR=1900
DGENRE=blues
TTITLE0=Turn It Loose
TTITLE1=It'S Too Funky In Here
TTITLE2=Gonna Have A Funky Good Time
TTITLE3=Try Me
TTITLE4=Get On The Good Foot
TTITLE5=Prisoner Of Love - Get Up Off That Thing
TTITLE6=Georgia On My Mind
TTITLE7=Hot Pants
TTITLE8=I Got The Feeling
TTITLE9=It'S A Mans World
TTITLE10=I Got It
TTITLE11=Cold Sweat - I Can'T Stand It
TTITLE12=Papa'S Got A Brand New Bag
TTITLE13=I Got You
TTITLE14=Please Please Please - Sex Machine
TTITLE15=Jam
EXTD=
EXTT0=
EXTT1=
EXTT2=
EXTT3=
EXTT4=
EXTT5=
EXTT6=
EXTT7=
EXTT8=
EXTT9=
EXTT10=
EXTT11=
EXTT12=
EXTT13=
EXTT14=
EXTT15=
PLAYORDER=
